<svg xmlns="http://www.w3.org/2000/svg" xmlns:xlink="http://www.w3.org/1999/xlink" version="1.1" x="0px" y="0px" viewBox="50 45 400 400" style="enable-background:new 50 45 400 400;" xml:space="preserve">
<g id="OBJECTS"  transform="translate(-10, -10)">
	<g>
		<path style="fill:#ffb7c5;" d="M266.047,396.466c1.043,0.66,2.127,1.288,3.262,1.764c2.008,0.843,3.966,0.65,5.736-0.687    c0.78-0.589,1.541-1.211,2.266-1.867c6.977-6.314,14.757-11.401,23.322-15.293c1.247-0.567,2.48-1.166,3.73-1.726    c4.644-2.081,9.294-4.149,13.939-6.228c4.774-2.136,9.371-4.596,13.751-7.46c5.19-3.394,9.661-7.546,13.331-12.549    c1.119-1.526,2.248-3.048,3.301-4.62c4.928-7.35,10.586-14.077,17.007-20.171c1.939-1.841,3.8-3.775,5.578-5.771    c1.341-1.506,2.542-3.145,3.714-4.789c0.951-1.335,1.641-2.833,1.988-4.443c0.611-2.839,0.446-5.486-1.417-7.982    c-5.372-7.198-12.335-12.105-20.822-14.914c-0.554-0.184-1.144-0.257-1.708-0.412c-0.978-0.268-1.707,0.001-2.447,0.738    c-2.918,2.905-6.093,5.523-9.363,8.022c-2.334,1.783-4.693,3.534-7.046,5.292c-4.184,3.125-8.374,6.241-12.553,9.373    c-0.443,0.332-1.003,0.583-1.225,1.286c3.658,3.062,6.476,6.798,8.887,10.859c2.818,4.747,5.234,10.546,5.479,13.25    c-0.318-0.442-0.55-0.734-0.75-1.045c-1.73-2.689-3.415-5.409-5.195-8.065c-1.453-2.167-2.975-4.291-4.547-6.373    c-1.497-1.982-3.178-3.811-5.101-5.398c-0.541-0.447-1.037-0.982-1.777-1.203c-0.488,0.37-0.966,0.709-1.419,1.078    c-2.279,1.854-4.589,3.671-6.819,5.582c-5.501,4.716-10.938,9.507-16.454,14.206c-2.383,2.03-4.85,3.969-7.369,5.826    c-1.356,1-2.853,1.845-4.376,2.575c-2.586,1.238-5.272,1.362-7.98,0.303c-0.402-0.157-0.837-0.23-1.412-0.383    c-0.013,0.869-0.021,1.579-0.035,2.289c-0.014,0.718-0.039,1.436-0.052,2.154c-0.013,0.718-0.019,1.436-0.023,2.154    c-0.004,0.653-0.004,1.306,0.001,1.959c0.007,0.718,0.015,1.436,0.035,2.154c0.02,0.718,0.068,1.435,0.082,2.152    c0.013,0.639,0.298,1.285,0.034,2.136c-0.212-0.431-0.373-0.649-0.432-0.893c-0.588-2.406-1.198-4.808-1.725-7.228    c-0.533-2.45-0.6-4.916-0.012-7.38c0.071-0.298,0.01-0.628,0.01-0.884c-4.11-3.257-6.599-4.662-8.874-4.989    c-0.147,0.479-0.318,0.966-0.447,1.464c-1.643,6.339-1.931,12.761-1.057,19.232c0.905,6.704,2.945,13.096,5.517,19.33    c0.22,0.533,0.509,1.038,0.767,1.556c-0.224-0.015-0.534,0.035-0.628-0.084c-0.522-0.665-1.02-1.356-1.456-2.08    c-5.908-9.803-8.6-20.374-7.505-31.822c0.267-2.79,0.61-5.583,1.729-8.204c0.035-0.083-0.061-0.223-0.12-0.413    c-0.263-0.08-0.563-0.194-0.874-0.263c-1.783-0.397-3.562-0.812-5.354-1.167c-3.381-0.671-6.5-1.914-9.225-4.065    c-0.196-0.155-0.437-0.253-0.691-0.398c-0.246,0.18-0.476,0.304-0.648,0.483c-1.999,2.072-4.458,3.377-7.148,4.295    c-0.988,0.337-1.979,0.667-2.98,0.959c-4.517,1.315-8.919,2.931-13.229,4.821c-1.667,0.731-3.409,1.312-5.154,1.84    c-2.993,0.906-6.037,0.959-9.097,0.305c-2.569-0.549-4.994-1.494-7.357-2.619c-3.307-1.575-6.424-3.479-9.491-5.471    c-0.539-0.35-1.096-0.671-1.605-0.982c-2.118,1.462-4.86,4.463-5.978,6.494c-1.771,3.216-1.591,6.376,0.292,9.472    c0.822,1.352,1.925,2.466,3.136,3.474c1.511,1.258,3.135,2.365,4.903,3.213c3.116,1.494,6.23,3.009,9.427,4.315    c8.157,3.331,16.201,6.906,24.175,10.654c6.198,2.912,12.471,5.672,18.777,8.344c6.688,2.833,13.146,6.078,19.249,10.017    C261.017,393.187,263.51,394.861,266.047,396.466z"/>
		<path style="fill:#ff2d55;" d="M110.053,259.207c-0.721,0.441-1.459,0.886-2.082,1.448c-1.681,1.515-2.043,3.498-1.026,5.506    c0.716,1.414,1.713,2.576,3.056,3.491c4.154,2.83,8.293,5.685,12.373,8.619c2.808,2.019,5.551,4.135,8.249,6.299    c5.813,4.663,11.185,9.819,16.564,14.966c6.983,6.682,14.041,13.282,21.425,19.524c6.587,5.569,13.351,10.908,20.66,15.509    c2.427,1.528,4.952,2.906,7.48,4.262c1.958,1.051,4.043,1.823,6.205,2.368c2.244,0.566,4.494,0.731,6.786,0.258    c1.994-0.411,3.909-1.045,5.761-1.868c4.719-2.096,9.556-3.857,14.517-5.29c1.5-0.434,2.986-0.966,4.408-1.611    c2.84-1.287,4.963-3.366,6.205-6.245c0.945-2.192,0.568-3.75-1.334-5.173c-1.246-0.933-2.605-1.748-4-2.444    c-2.568-1.281-5.191-2.454-7.808-3.636c-4.405-1.989-8.746-4.104-12.905-6.57c-7.272-4.311-14.103-9.202-19.944-15.373    c-0.085-0.09-0.214-0.14-0.43-0.277c-2.152,0.169-4.256-0.56-6.359-1.229c-2.087,1.455-4.007,3.02-5.826,4.706    c-1.149,1.065-2.259,2.172-3.401,3.244c-0.184,0.172-0.356,0.566-0.801,0.187c0.505-0.845,0.983-1.696,1.511-2.514    c0.531-0.822,1.088-1.63,1.676-2.412c0.588-0.782,1.207-1.543,1.851-2.28c0.63-0.722,1.309-1.402,2.07-2.21    c-0.523-0.306-0.893-0.552-1.289-0.744c-0.4-0.194-0.826-0.332-1.177-0.47c-4.953,3.074-8.248,5.735-12.352,10.051    c-1.889,1.987-3.714,4.035-5.579,6.046c-0.179,0.193-0.3,0.589-0.797,0.348c3.675-7.351,8.709-13.477,15.507-18.089    c-0.336-0.717-1.012-0.9-1.554-1.225c-3.643-2.187-7.161-4.558-10.49-7.197c-1.226-0.972-2.411-2.004-3.536-3.091    c-3.01-2.909-4.31-6.467-3.853-10.642c0.149-1.362,0.297-2.726,0.505-4.08c0.915-5.943,1.428-11.923,1.67-17.928    c0.018-0.436-0.07-0.876-0.111-1.329c-0.35-0.074-0.599-0.133-0.85-0.178c-3.131-0.567-6.258-0.284-9.362,0.164    c-7.63,1.101-14.842,3.496-21.612,7.202c-0.373,0.204-0.804,0.3-1.211,0.441c0.006-0.676,0.618-0.898,1.024-1.234    c4.646-3.836,9.877-6.576,15.682-8.179c5.251-1.45,10.565-2.41,16.051-1.639c0.11,0.015,0.234-0.073,0.463-0.15    c0.383-1.847,0.483-3.764,0.486-5.68c-3.79-1.993-7.886-2.426-11.873-3.271c2.094-0.353,4.18-0.277,6.266-0.29    c2.076-0.013,4.09,0.509,6.07,0.737c0.532-1.424,0.902-2.755,1.509-3.967c1.324-2.646,3.799-3.826,6.688-3.183    c1.261,0.281,2.494,0.763,3.68,1.288c1.798,0.796,3.397,1.941,4.942,3.151c3.374,2.643,6.166,5.814,8.525,9.382    c0.274,0.415,0.419,0.98,1.097,1.081c3.508-2.174,7.402-3.43,11.469-4.216c0.48-0.093,0.944-0.275,1.596-0.47    c-0.637-0.894-1.131-1.652-1.69-2.359c-2.235-2.826-4.766-5.367-7.487-7.724c-6.688-5.796-14.22-10.145-22.536-13.149    c-3.931-1.42-7.924-2.636-11.995-3.586c-0.312-0.073-0.653-0.129-0.514-0.705c0.685,0,1.4-0.049,2.107,0.009    c2.865,0.235,5.709,0.618,8.507,1.301c14.004,3.419,25.411,10.939,34.622,21.927c0.362,0.432,0.733,0.857,1.21,1.414    c0.313-0.614,0.569-1.056,0.769-1.521c1.276-2.965,1.998-6.083,2.298-9.276c0.306-3.251,0.432-6.521-0.243-9.755    c-0.118-0.563-0.282-1.149-0.569-1.64c-2.52-4.308-3.067-8.952-2.433-13.811c0.066-0.509,0.104-1.022,0.156-1.534    c-3.844-2.628-7.703-5.064-11.988-6.732c-4.66-1.814-9.45-2.962-14.502-2.858c-4.472,0.092-8.849,0.77-13.107,2.084    c-14.289,4.411-24.546,13.232-29.717,27.499c-1.111,3.065-2.14,6.167-3.03,9.302c-2.488,8.766-5.943,17.13-10.237,25.154    c-0.738,1.379-1.543,2.729-2.412,4.029c-1.88,2.815-4.31,5.059-7.271,6.716C111.656,258.33,110.831,258.731,110.053,259.207z"/>
		<path style="fill:#ff2d55;" d="M250.307,332.754c2.351,0.544,4.7,1.106,7.067,1.568c4.36,0.851,8.371,2.461,11.907,5.194    c0.773,0.598,1.588,1.149,2.427,1.65c0.838,0.5,1.707,0.962,2.602,1.348c1.368,0.589,2.803,0.679,4.199,0.126    c1.086-0.43,2.197-0.875,3.163-1.515c1.901-1.259,3.778-2.575,5.541-4.019c2.978-2.439,5.894-4.959,8.776-7.511    c9.827-8.704,19.964-17.024,30.563-24.775c3.898-2.851,7.767-5.742,11.626-8.648c3.967-2.987,7.772-6.166,11.277-9.693    c3.049-3.068,5.787-6.379,7.947-10.143c0.944-1.645,1.744-3.353,2.318-5.168c0.752-2.377,0.827-4.743,0.02-7.117    c-0.273-0.803-0.516-1.618-0.837-2.401c-0.767-1.871-1.515-3.752-2.372-5.582c-3.61-7.708-6.387-15.705-8.38-23.974    c-1.452-6.023-2.849-12.058-4.272-18.088c-0.66-2.797-1.376-5.574-2.688-8.157c-0.954-1.878-2.119-3.598-3.708-5.003    c-1.832-1.62-3.941-2.497-6.422-2.455c-1.644,0.028-3.242,0.274-4.829,0.69c-5.258,1.377-9.487,4.514-13.593,7.808    c0,0.981-0.017,1.89,0.004,2.798c0.041,1.828,0.119,3.659-0.269,5.462c-1.189,5.516-3.854,10.226-7.902,14.131    c-0.761,0.734-1.196,1.45-1.245,2.514c-0.151,3.267-0.7,6.485-1.431,9.667c-0.215,0.937-0.151,1.757,0.226,2.645    c1.074,2.529,1.806,5.171,2.357,7.859c1.197,5.846,1.604,11.764,1.422,17.716c-0.062,2.013-0.396,4.022-0.683,6.022    c-0.126,0.882-0.445,1.736-0.695,2.672c0.933,0.451,1.863,0.233,2.743,0.347c0.84,0.11,1.686,0.18,2.527,0.282    c0.897,0.109,1.793,0.235,2.645,0.348c1.458-1.285,2.527-2.761,3.501-4.311c1.814-2.888,3.169-5.993,4.313-9.195    c2.172-6.078,3.377-12.336,3.247-18.798c-0.086-4.287-0.881-8.435-3.28-12.121c-0.071-0.109-0.142-0.222-0.185-0.343    c-0.118-0.339-0.113-0.635,0.403-0.77c0.198,0.196,0.453,0.396,0.642,0.645c0.913,1.199,1.659,2.495,2.251,3.884    c1.451,3.403,2.189,6.953,2.297,10.648c0.136,4.666-0.415,9.251-1.603,13.757c-1.235,4.685-2.863,9.225-5.357,13.403    c-0.9,1.507-1.948,2.925-2.979,4.458c0.236,0.236,0.49,0.524,0.777,0.774c1.94,1.689,1.761,4.28,0.332,5.972    c-0.582,0.689-1.277,1.328-2.033,1.816c-1.312,0.847-2.674,1.635-4.08,2.314c-3.645,1.761-7.404,3.253-11.23,4.574    c-5.628,1.943-11.439,3.144-17.265,4.292c-1.08,0.213-2.175,0.488-3.176,0.93c-3.703,1.635-7.306,3.476-10.751,5.609    c-7.67,4.749-14.942,10.052-21.897,15.793c-0.601,0.496-1.169,1.032-1.504,1.329c-0.497,1.812-0.908,3.31-1.39,5.068    c0.286,0.259,0.599,0.591,0.959,0.861C246.126,331.292,248.117,332.247,250.307,332.754z"/>
		<path style="fill:#ffb7c5;" d="M198.226,366.964c-3.681-1.509-7.324-3.116-10.95-4.755c-2.143-0.968-4.167-2.171-6.072-3.561    c-1.643-1.198-3.143-2.547-4.384-4.17c-3.345-4.373-4.107-10.242-0.01-15.561c1.123-1.458,2.448-2.71,3.88-3.856    c0.446-0.357,0.867-0.744,1.42-1.222c-1.891-1.27-3.491-2.677-5.386-3.768c-2.262,2.52-4.26,5.083-5.897,7.922    c-1.897,3.288-3.496,6.715-4.771,10.287c-0.657,1.842-1.205,3.722-1.814,5.581c-0.113,0.345-0.113,0.803-0.701,0.839    c-0.457-0.329-0.25-0.798-0.143-1.199c0.606-2.268,1.139-4.563,1.885-6.785c2.189-6.526,4.842-12.82,9.677-17.916    c-0.931-1.019-6.577-5.59-7.782-6.292c-0.363,0.188-0.773,0.38-1.163,0.607c-3.519,2.059-6.599,4.673-9.493,7.521    c-7.254,7.139-12.804,15.456-17.068,24.665c-1.51,3.261-2.843,6.59-3.854,10.042c-0.119,0.405-0.07,0.947-0.828,1.033    c-0.045-0.29-0.167-0.59-0.119-0.861c0.168-0.962,0.344-1.929,0.607-2.869c3.564-12.755,9.852-23.968,19.044-33.527    c3.087-3.21,6.417-6.134,10.218-8.488c0.083-0.051,0.099-0.208,0.208-0.455c-1.378-1.206-2.79-2.441-4.246-3.715    c-0.984,0.471-1.736,0.866-2.515,1.198c-5.046,2.152-9.458,5.258-13.465,8.961c-4.824,4.458-8.858,9.575-12.422,15.075    c-0.213,0.329-0.393,0.679-0.619,0.998c-0.196,0.277-0.49,0.509-0.804,0.251c-0.139-0.114-0.19-0.483-0.118-0.675    c0.181-0.486,0.441-0.945,0.692-1.402c2.207-4.018,4.811-7.773,7.714-11.311c5.16-6.289,11.194-11.493,18.748-14.753    c0.114-0.049,0.208-0.145,0.394-0.279c-1.026-1.363-2.416-2.347-3.618-3.513c-1.218-1.182-2.464-2.336-3.72-3.477    c-1.249-1.134-2.37-2.413-3.763-3.409c-0.42,0.103-0.804,0.172-1.171,0.292c-4.867,1.586-9.037,4.334-12.835,7.701    c-0.438,0.389-0.853,0.811-1.328,1.147c-0.156,0.11-0.544,0.087-0.69-0.036c-0.139-0.118-0.182-0.469-0.121-0.674    c0.068-0.232,0.281-0.433,0.463-0.617c3.833-3.899,8.087-7.201,13.193-9.293c0.163-0.067,0.303-0.19,0.576-0.367    c-0.439-0.471-0.814-0.898-1.215-1.299c-10.565-10.561-22.249-19.757-34.48-28.288c-0.321-0.224-0.624-0.493-0.976-0.65    c-0.404-0.181-0.852-0.364-1.282-0.365c-1.919-0.005-3.764,0.389-5.478,1.273c-1.847,0.953-3.001,2.447-3.468,4.491    c-0.267,1.168-0.336,2.333-0.095,3.495c0.251,1.211,0.509,2.433,0.914,3.598c0.685,1.97,1.461,3.911,2.249,5.843    c1.945,4.773,3.997,9.505,5.863,14.308c3.524,9.07,5.537,18.489,6.112,28.2c0.301,5.082,0.505,10.171,0.673,15.259    c0.125,3.788,0.351,7.565,0.864,11.319c0.55,4.022,1.425,7.965,3.122,11.682c1.203,2.634,2.73,5.053,4.822,7.081    c2.748,2.663,5.958,4.416,9.79,4.943c2.836,0.39,5.615,0.072,8.314-0.79c2.234-0.714,4.438-1.54,6.616-2.412    c4.181-1.674,8.37-3.32,12.675-4.652c5.92-1.833,11.958-2.652,18.161-2.231c4.446,0.302,8.792,1.156,13.11,2.197    c4.819,1.161,9.6,2.502,14.531,3.14c4.709,0.609,9.378,0.491,13.958-0.913c0.218-0.067,0.551-0.021,0.564-0.525    c-0.216-0.128-0.471-0.306-0.748-0.439C212.606,373.163,205.475,369.934,198.226,366.964z"/>
		<path style="fill:#ff2d55;" d="M187.928,145.252c-3.057,2.118-6.174,4.162-9.121,6.427c-6.048,4.648-10.092,10.704-11.995,18.103    c-0.942,3.661-1.666,7.379-2.479,11.073c-0.063,0.289-0.05,0.594-0.082,1.017c0.479-0.105,0.785-0.179,1.094-0.239    c2.495-0.49,4.978-1.067,7.49-1.443c3.5-0.524,7.044-0.642,10.542-0.08c7.959,1.278,15.218,4.128,21.111,9.868    c0.156,0.152,0.364,0.421,0.756-0.057c-1.442-1.941-2.632-4.097-3.63-6.359c-1.031-2.333-1.874-4.729-2.523-7.195    c-0.632-2.405-1.1-4.849-1.24-7.324c-0.144-2.538-0.135-5.091-0.059-7.633c0.072-2.417,0.349-4.825,1.02-7.172    c0.099,0.527,0.11,1.046,0.097,1.564c-0.1,3.993,0.179,7.959,0.84,11.898c0.958,5.708,2.747,11.139,5.479,16.248    c0.155,0.29,0.178,0.789,0.835,0.704c0.094-0.552,0.203-1.119,0.285-1.691c0.352-2.456,0.793-4.89,1.461-7.286    c0.463-1.658,1.381-2.958,2.779-3.895c0.916-0.614,1.925-1.09,2.898-1.62c0.448-0.244,0.906-0.468,1.356-0.699    c0.018-0.345,0.043-0.601,0.043-0.857c0.002-3.214,0.453-6.374,1.128-9.508c1.147-5.324,3.11-10.363,5.312-15.321    c0.13-0.293,0.318-0.566,0.513-0.822c0.04-0.053,0.174-0.034,0.288-0.031c-0.603,2.391-1.23,4.774-1.811,7.169    c-1.371,5.659-2.328,11.379-2.412,17.219c-0.005,0.38,0.037,0.761,0.062,1.223c0.405-0.055,0.719-0.092,1.031-0.142    c1.803-0.29,3.598-0.658,5.411-0.86c6.011-0.671,12.002-0.437,17.93,0.753c3.768,0.757,7.534,1.582,11.058,3.407    c4.181-0.973,8.096,0.055,11.824,2.033c1.206,0.64,2.352,1.409,3.463,2.206c1.431,1.027,2.827,2.108,4.19,3.224    c3.87,3.169,8.116,5.685,12.77,7.521c2.852,1.125,5.7,2.264,8.529,3.445c1.443,0.602,2.868,1.258,4.255,1.979    c2.49,1.296,3.896,3.411,4.361,6.152c0.185,1.092,0.361,2.196,0.4,3.299c0.156,4.436,0.284,8.874,0.37,13.313    c0.057,2.937,0.021,5.876,0.042,8.814c0.003,0.361-0.146,0.777,0.219,1.057c0.077,0,0.149,0.022,0.194-0.004    c0.109-0.064,0.23-0.133,0.304-0.231c3.551-4.683,5.644-9.807,4.931-15.835c-0.517-4.37-0.353-8.73,0.447-13.064    c0.474-2.566,0.909-5.138,1.367-7.706c0.731-4.095-0.113-7.908-2.045-11.531c-1.458-2.733-3.39-5.106-5.538-7.314    c-2.788-2.867-5.859-5.402-9.213-7.571c-3.123-2.019-6.301-3.955-9.482-5.885c-4.132-2.507-8.17-5.147-12.125-7.928    c-4.097-2.881-7.157-6.636-9.714-10.866c-1.023-1.692-1.69-3.527-2.124-5.448c-0.562-2.494-0.794-5.024-0.815-7.578    c-0.007-0.913-0.001-1.832-0.09-2.739c-0.187-1.898-1.248-3.142-3.077-3.616c-1.001-0.259-2.055-0.401-3.089-0.426    c-5.314-0.129-10.374,1.065-15.191,3.233c-2.435,1.096-4.807,2.354-7.132,3.671c-3.748,2.122-7.437,4.349-11.146,6.54    c-6.138,3.626-12.531,6.723-19.168,9.327c-3.887,1.525-7.742,3.131-11.607,4.712C188.964,144.698,188.405,144.921,187.928,145.252    z"/>
		<path style="fill:#ffb7c5;" d="M286.746,127.836c-3.039,0.622-5.82,1.908-8.49,3.442c-3.404,1.956-6.574,4.253-9.618,6.725    c-0.237,0.193-0.417,0.456-0.691,0.761c0.686,0.802,1.26,1.606,1.967,2.268c1.237,1.158,2.502,2.297,3.85,3.321    c4.164,3.163,8.605,5.91,13.088,8.59c2.465,1.473,4.931,2.945,7.358,4.479c3.482,2.201,6.79,4.639,9.804,7.46    c2.342,2.193,4.506,4.54,6.319,7.196c1.972,2.888,3.431,6.001,4.046,9.467c0.155,0.874,0.224,1.764,0.332,2.646    c1.255-1.628,2.171-3.396,3.297-5.028c1.186-1.718,2.379-3.436,3.672-5.073c1.253-1.586,2.596-3.106,3.975-4.585    c1.424-1.527,2.904-3.005,4.422-4.438c1.455-1.372,2.907-2.768,4.78-3.797c0.047,0.315,0.155,0.546,0.082,0.652    c-0.18,0.263-0.433,0.479-0.674,0.695c-5.379,4.83-9.989,10.308-13.771,16.466c-2.991,4.869-5.259,10.05-6.523,15.648    c-0.388,1.717-0.852,3.417-1.299,5.119c-0.319,1.213-0.416,2.444-0.353,3.688c0.011,0.217,0.154,0.428,0.241,0.656    c0.221-0.116,0.36-0.151,0.445-0.239c1.862-1.936,3.858-3.712,6.171-5.1c0.571-0.342,0.702-0.879,0.853-1.46    c1.733-6.654,5.227-12.334,9.691-17.475c0.212-0.244,0.435-0.509,0.71-0.656c0.172-0.092,0.453,0.018,0.673,0.036    c0.044,0.792-0.471,1.165-0.817,1.619c-3.449,4.521-5.891,9.532-7.332,15.03c-0.06,0.229-0.046,0.477-0.08,0.882    c0.452-0.118,0.746-0.192,1.039-0.271c1.384-0.375,2.75-0.842,4.155-1.11c5.412-1.03,9.928,0.542,13.445,4.822    c0.578,0.704,1.102,1.459,1.597,2.225c0.996,1.541,1.803,3.187,2.362,4.931c0.596,1.861,1.168,3.739,1.602,5.643    c1.495,6.55,2.864,13.131,4.701,19.597c1.122,3.952,2.35,7.873,3.569,11.797c0.204,0.658,0.351,1.381,0.957,1.976    c0.301-0.3,0.612-0.539,0.834-0.843c0.809-1.105,1.644-2.197,2.369-3.357c2.896-4.631,4.858-9.664,6.287-14.916    c1.221-4.488,1.769-9.088,2.246-13.698c0.073-0.703-0.009-1.434-0.103-2.14c-0.709-5.383-1.983-10.643-3.516-15.842    c-2.711-9.197-5.465-18.382-8.174-27.58c-1.161-3.941-2.218-7.914-3.395-11.85c-0.466-1.558-1.06-3.087-1.723-4.573    c-1.243-2.787-3.422-4.242-6.507-4.079c-1.819,0.096-3.631,0.363-5.442,0.585c-4.286,0.527-8.569,0.799-12.884,0.271    c-5.035-0.617-9.391-2.632-13.049-6.128c-1.272-1.216-2.447-2.536-3.659-3.814c-1.257-1.326-2.472-2.695-3.767-3.983    c-1.857-1.848-3.899-3.474-6.194-4.757C295.573,127.475,291.264,126.911,286.746,127.836z"/>
		<path style="fill:#ffb7c5;" d="M177.903,230.114c-1.388-1.073-2.901-1.995-4.414-2.89c-0.718-0.425-1.548-0.711-2.363-0.912    c-2.16-0.533-3.176,0.007-3.973,2.065c-0.281,0.726-0.532,1.485-0.647,2.251c-0.32,2.128-0.654,4.26-0.812,6.404    c-0.235,3.189-0.264,6.393-0.493,9.583c-0.256,3.579-0.605,7.152-0.974,10.721c-0.302,2.92-0.704,5.83-1.041,8.747    c-0.337,2.922,0.587,5.421,2.682,7.455c1.122,1.089,2.297,2.135,3.528,3.099c5.206,4.08,10.803,7.551,16.696,10.544    c1.104,0.56,2.241,1.068,3.4,1.502c0.973,0.364,1.987,0.648,3.006,0.855c1.85,0.377,3.503-0.083,4.864-1.418    c0.652-0.639,1.244-1.338,1.881-1.993c0.682-0.701,1.333-1.446,2.087-2.061c1.816-1.48,3.861-1.803,6.068-0.984    c1.372,0.509,2.575,1.301,3.531,2.397c0.984,1.13,1.956,2.287,2.785,3.531c2.395,3.59,5.44,6.487,9.035,8.842    c3.988,2.613,8.035,5.128,12.266,7.327c1.676,0.871,3.402,1.669,5.167,2.336c1.269,0.48,2.625,0.794,3.971,0.998    c2.443,0.371,4.826-0.045,7.093-0.985c2.711-1.125,5.403-2.298,8.077-3.51c5.002-2.267,10.094-4.287,15.454-5.533    c3.367-0.783,6.757-1.475,10.152-2.122c8.184-1.56,16.055-4.077,23.594-7.615c1.472-0.691,2.882-1.524,4.278-2.363    c0.718-0.432,1.41-0.965,1.615-1.975c-0.465-0.867-1.196-1.183-1.951-1.38c-1.132-0.295-2.281-0.558-3.438-0.72    c-3.764-0.529-7.557-0.501-11.341-0.369c-2.343,0.082-4.7,0.264-7.011,0.646c-5.793,0.955-11.566,2.03-17.34,3.092    c-6.032,1.109-12.038,2.363-18.13,3.117c-4.101,0.508-8.21,0.544-12.303-0.045c-2.711-0.39-5.41-0.869-8.102-1.38    c-4.884-0.927-9.638-2.302-14.236-4.217c-6.25-2.604-11.648-6.391-16.16-11.445c-3.542-3.967-6.557-8.297-8.935-13.051    c-1.401-2.8-2.642-5.679-3.998-8.502c-1.525-3.175-3.002-6.38-4.673-9.477C184.576,236.554,181.621,232.987,177.903,230.114z"/>
		<path style="fill:#ffb7c5;" d="M399.029,279.755c2.553-3.141,4.976-6.381,7.199-9.768c1.65-2.513,3.191-5.091,4.384-7.853    c0.748-1.732,1.433-3.504,1.978-5.309c0.951-3.151,0.904-6.317-0.319-9.407c-1.514-3.825-4.139-6.62-7.948-8.205    c-2.347-0.976-4.759-1.795-7.131-2.713c-5.652-2.187-10.819-5.182-15.322-9.27c-1.884-1.711-3.761-3.431-5.624-5.165    c-1.577-1.467-3.127-2.964-4.698-4.437c-0.223-0.209-0.435-0.513-0.823-0.372c-0.04,0.056-0.097,0.1-0.104,0.152    c-0.044,0.322-0.085,0.645-0.111,0.969c-0.42,5.365-1.524,10.579-3.401,15.627c-2.13,5.73-4.781,11.154-9.096,15.61    c-0.045,0.047-0.086,0.098-0.126,0.149c-0.292,0.376-0.228,0.535,0.268,0.899c1.975-0.73,3.84-1.519,5.766-2.112    c4.238-1.304,8.608-1.404,12.995-1.198c0.242,0.011,0.49,0.135,0.71,0.253c0.061,0.033,0.033,0.233,0.061,0.5    c-1.601,0.15-3.211,0.245-4.804,0.466c-1.612,0.224-3.232,0.478-4.802,0.895c-1.57,0.417-3.109,0.987-4.613,1.608    c-1.498,0.618-2.94,1.374-4.374,2.468c0.714,1.421,1.197,2.893,2.04,4.347c9.298-3.857,26.722-3.732,33.983-1.926    c-0.539,0-0.797-0.001-1.055,0c-6.865,0.03-13.69,0.546-20.464,1.677c-3.221,0.538-6.414,1.189-9.485,2.332    c-0.594,0.221-1.167,0.5-1.834,0.789c0.233,0.801,0.413,1.484,0.63,2.155c0.885,2.74,0.99,5.495,0.279,8.295    c-0.485,1.911-1.228,3.714-2.135,5.453c-1.453,2.789-3.228,5.364-5.225,7.79c-0.408,0.496-0.795,1.009-1.272,1.617    c1.122,0.387,2.115,0.694,3.083,1.068c7.514,2.899,13.95,7.319,19.105,13.549c0.356,0.43,0.606,1.002,1.293,1.198    c0.497-0.434,0.994-0.846,1.467-1.284C386.509,294.122,393.009,287.162,399.029,279.755z"/>
		<path style="fill:#ffb7c5;" d="M113.888,207.458c2.517,10.458,5.097,20.902,7.658,31.349c0.067,0.274,0.226,0.526,0.445,1.02    c0.408-0.808,0.711-1.372,0.983-1.95c2.196-4.673,3.907-9.526,5.431-14.453c1.252-4.048,2.484-8.107,3.914-12.093    c2.344-6.533,5.902-12.341,10.873-17.234c4.427-4.358,9.586-7.613,15.258-10.089c0.651-0.284,1.303-0.564,1.902-0.823    c0.202-0.887,0.38-1.648,0.548-2.411c0.796-3.63,1.507-7.28,2.4-10.886c2.275-9.182,7.313-16.496,15.111-21.873    c1.663-1.147,3.398-2.19,5.098-3.284c0.368-0.237,0.726-0.49,1.088-0.736c-0.02-0.129-0.041-0.259-0.061-0.388    c-0.831-0.134-1.658-0.326-2.494-0.392c-6.127-0.48-11.978,0.549-17.41,3.473c-2.638,1.42-5.173,3.035-7.725,4.61    c-1.831,1.13-3.567,2.421-5.43,3.492c-1.861,1.069-3.778,2.072-5.758,2.897c-4.873,2.031-9.98,2.417-15.182,1.823    c-1.887-0.215-3.773-0.376-5.657-0.074c-3.381,0.543-6.067,2.281-8.2,4.916c-3.242,4.004-5.134,8.584-5.86,13.673    c-0.632,4.434-0.388,8.859,0.148,13.271C111.63,196.737,112.605,202.13,113.888,207.458z"/>
		<path style="fill:#ffb7c5;" d="M222.459,280.284c4.991,1.751,10.083,3.148,15.258,4.223c4.156,0.863,8.357,1.471,12.624,1.275    c1.692-0.078,3.388-0.195,5.066-0.417c2.709-0.357,5.406-0.816,8.086-1.229c0.561-1.783,0.921-3.314,1.52-4.745    c1.055-2.524,2.16-5.037,3.415-7.466c2.694-5.215,5.505-10.369,8.251-15.556c3.572-6.746,6.929-13.596,9.836-20.658    c0.319-0.776,0.599-1.568,0.883-2.314c-0.277-0.555-0.474-1.043-0.747-1.482c-1.689-2.724-3.151-5.558-4.271-8.566    c-0.073-0.196-0.272-0.346-0.496-0.618c-0.214,0.534-0.38,0.885-0.497,1.252c-1.753,5.471-4.542,10.377-8.08,14.879    c-2.506,3.188-5.283,6.128-8.216,8.919c-6.428,6.117-12.876,12.213-19.326,18.307c-1.805,1.705-3.721,3.273-5.814,4.622    c-2.383,1.536-4.932,2.703-7.726,3.189c-1.791,0.312-3.623,0.454-5.442,0.53c-2.149,0.09-4.305,0.012-6.458,0.037    c-1.714,0.02-3.358,0.435-4.958,1.02c-0.278,0.102-0.524,0.294-0.938,0.533c0.499,0.395,0.82,0.697,1.185,0.93    C217.768,278.324,220.049,279.439,222.459,280.284z"/>
		<path style="fill:#ffb7c5;" d="M259.65,221.444c-1.84,1.556-3.823,2.947-5.771,4.373c-3.896,2.853-7.866,5.609-11.701,8.542    c-3.732,2.854-7.32,5.895-10.994,8.825c-2.398,1.912-4.818,3.798-7.266,5.645c-1.617,1.219-3.352,2.264-5.212,3.085    c-2.178,0.961-4.439,1.511-6.837,1.427c-2.326-0.081-4.5-0.734-6.568-1.751c-1.522-0.749-2.983-1.626-4.523-2.33    c-1.597-0.73-3.25-1.342-4.894-1.964c-0.598-0.226-1.239-0.419-1.98-0.063c3.512,8.394,7.365,16.554,13.829,23.124    c0.226-0.077,0.368-0.092,0.469-0.164c3.526-2.509,7.41-4.376,11.273-6.279c3.805-1.873,7.628-3.71,11.411-5.624    c4.369-2.21,8.643-4.593,12.742-7.279c8.413-5.512,15.319-12.561,21.096-20.745c2.466-3.493,4.316-7.29,5.263-11.495    c0.726-3.227,0.899-6.462,0.192-9.707c-0.87-3.996-2.878-7.238-6.382-9.478c-2.933-1.875-6.073-3.264-9.619-3.975    c0.804,0.422,1.614,0.832,2.41,1.268c2.601,1.427,4.942,3.177,6.745,5.566c3.596,4.765,3.627,10.489-0.022,15.208    C262.242,219.037,260.986,220.314,259.65,221.444z"/>
		<path style="fill:#ffb7c5;" d="M288.857,229.188c0.233-0.495,0.425-0.816,0.541-1.164c1.67-4.961,2.934-10.021,3.412-15.242    c0.297-3.25,0.389-6.51-0.218-9.755c-0.482-2.574-1.723-4.634-3.902-6.083c-1.683-1.119-3.384-2.217-5.132-3.228    c-2.435-1.408-4.798-2.905-6.935-4.746c-3.61-3.111-7.171-6.273-10.498-9.692c-0.952-0.978-2.038-1.827-3.086-2.707    c-0.345-0.29-0.739-0.553-1.153-0.725c-2.719-1.126-5.502-1.621-8.401-0.736c-0.499,0.152-0.998,0.304-1.494,0.465    c-5.456,1.77-10.059,4.913-14.136,8.868c-3.43,3.326-6.495,6.977-9.173,10.932c-2.89,4.268-5.688,8.598-8.522,12.904    c-0.106,0.161-0.167,0.352-0.246,0.523c1.735,3.005,6.572,8.286,8.709,9.469c0.393-0.669,0.834-1.317,1.173-2.015    c1.342-2.756,2.652-5.526,3.973-8.292c1.18-2.471,2.317-4.965,3.558-7.405c0.589-1.157,1.326-2.249,2.085-3.307    c1.75-2.442,4.061-3.835,7.168-3.584c0.688,0.055,1.252-0.141,1.808-0.549c1.299-0.953,2.796-1.368,4.391-1.479    c1.638-0.114,3.268-0.063,4.857,0.372c2.201,0.603,4.398,1.223,6.58,1.891c3.499,1.072,7.043,1.931,10.674,2.413    c0.904,0.12,1.805,0.268,2.702,0.434c2.323,0.431,3.835,1.842,4.707,3.984c0.221,0.542,0.439,1.102,0.533,1.674    c0.286,1.735,0.62,3.472,0.735,5.221c0.201,3.066,0.102,6.136-0.432,9.172c-0.143,0.812-0.03,1.523,0.293,2.272    c1.318,3.062,2.826,6.023,4.565,8.867C288.224,228.322,288.499,228.676,288.857,229.188z"/>
		<path style="fill:#ffb7c5;" d="M192.9,239.652c-0.687,0.351-1.425,0.642-2.026,1.348c0.4,0.801,0.8,1.602,1.199,2.401    c0.329,0.045,0.584,0.11,0.839,0.109c2.122-0.004,4.153,0.473,6.095,1.271c1.566,0.644,3.086,1.404,4.61,2.147    c1.173,0.572,2.303,1.23,3.48,1.794c3.52,1.688,7.068,1.721,10.556-0.048c1.507-0.765,2.984-1.631,4.352-2.621    c2.324-1.684,4.597-3.447,6.81-5.275c7.854-6.49,15.844-12.797,24.277-18.529c1.67-1.135,3.24-2.424,4.807-3.702    c1.268-1.035,2.376-2.242,3.262-3.628c1.983-3.101,2.02-6.252,0.182-9.43c-0.898-1.552-2.146-2.793-3.564-3.861    c-2.857-2.15-6.055-3.577-9.533-4.381c-0.508-0.117-1.023-0.218-1.541-0.27c-2.006-0.199-3.55,0.528-4.614,2.329    c0.336,1.178,0.573,2.378,1.706,3.201c0.163-0.393,0.277-0.696,0.412-0.99c0.831-1.81,1.882-2.448,3.847-2.371    c1.206,0.048,2.299,0.472,3.346,1.011c2.637,1.357,4.958,3.143,6.968,5.322c0.44,0.477,0.845,1.004,1.17,1.564    c0.746,1.284,1.012,2.651,0.678,4.142c-0.382,1.708-1.137,3.222-2.368,4.427c-1.066,1.044-2.21,2.06-3.472,2.839    c-2.05,1.264-4.182,2.416-6.357,3.454c-5.475,2.615-11.026,5.074-16.487,7.718c-6.358,3.078-13.048,4.88-20.039,5.727    c-3.366,0.408-6.719,0.948-10.059,1.537C198.472,237.41,195.596,238.275,192.9,239.652z"/>
		<path style="fill:#ffb7c5;" d="M247.402,172.212c-4.654-1.116-9.391-1.615-14.16-1.762c-4.383-0.135-8.746,0.185-13.048,1.08    c-2.111,0.44-4.194,1.02-6.109,2.039c-0.797,0.424-1.546,0.969-2.239,1.551c-0.649,0.545-0.829,1.32-0.589,2.143    c0.201,0.688,0.405,1.382,0.688,2.039c2.016,4.677,2.94,9.578,3.177,14.649c0.097,2.079,0.357,4.166,0.735,6.214    c0.463,2.508,1.367,4.876,3.065,7.23c0.318-0.625,0.506-0.96,0.663-1.31c1.826-4.054,3.997-7.923,6.318-11.71    c2.5-4.08,5.46-7.811,8.765-11.264c3.969-4.146,8.488-7.53,13.807-9.782c0.253-0.107,0.457-0.329,0.771-0.563    c-0.344-0.127-0.522-0.207-0.708-0.259C248.161,172.401,247.782,172.303,247.402,172.212z"/>
		<path style="fill:#ffb7c5;" d="M242.668,319.788c0.256,0.274,0.531,0.531,0.824,0.822c0.287-0.196,0.512-0.324,0.708-0.487    c5.829-4.844,11.967-9.26,18.39-13.282c0.331-0.207,0.663-0.421,0.95-0.682c0.115-0.105,0.108-0.343,0.157-0.521l0.013-0.035    c-0.153,0.116-0.29,0.267-0.46,0.343c-2.852,1.287-5.691,2.607-8.572,3.826c-1.557,0.659-3.165,1.221-4.79,1.686    c-2.152,0.616-4.348,0.738-6.585,0.368c-2.473-0.41-4.804-1.216-7.044-2.289c-6.192-2.967-12.039-6.523-17.625-10.508    c-2.571-1.834-4.751-4.07-6.597-6.633c-0.801-1.111-1.568-2.25-2.427-3.315c-0.61-0.756-1.279-1.498-2.043-2.089    c-1.82-1.408-3.224-1.284-4.844,0.337c-0.737,0.738-1.396,1.553-2.127,2.297c-0.771,0.784-1.586,1.523-2.424,2.321    c0.522,0.882,1.304,1.481,2.028,2.121c4.951,4.376,10.258,8.265,15.964,11.603c4.849,2.837,9.927,5.211,15.042,7.518    c2.495,1.125,4.95,2.342,7.388,3.587C240.106,317.552,241.496,318.531,242.668,319.788z"/>
		
	</g>
</g>
</svg>